<svg id="visual" viewBox="0 0 1920 1080" width="1920" height="1080" xmlns="http://www.w3.org/2000/svg" xmlns:xlink="http://www.w3.org/1999/xlink" version="1.1"><rect x="0" y="0" width="1920" height="1080" fill="#2D3142"></rect><defs><linearGradient id="grad1_0" x1="43.8%" y1="0%" x2="100%" y2="100%"><stop offset="14.444444444444446%" stop-color="#4f5d75" stop-opacity="1"></stop><stop offset="85.55555555555554%" stop-color="#4f5d75" stop-opacity="1"></stop></linearGradient></defs><defs><linearGradient id="grad1_1" x1="43.8%" y1="0%" x2="100%" y2="100%"><stop offset="14.444444444444446%" stop-color="#4f5d75" stop-opacity="1"></stop><stop offset="85.55555555555554%" stop-color="#48546a" stop-opacity="1"></stop></linearGradient></defs><defs><linearGradient id="grad1_2" x1="43.8%" y1="0%" x2="100%" y2="100%"><stop offset="14.444444444444446%" stop-color="#414b60" stop-opacity="1"></stop><stop offset="85.55555555555554%" stop-color="#48546a" stop-opacity="1"></stop></linearGradient></defs><defs><linearGradient id="grad1_3" x1="43.8%" y1="0%" x2="100%" y2="100%"><stop offset="14.444444444444446%" stop-color="#414b60" stop-opacity="1"></stop><stop offset="85.55555555555554%" stop-color="#3b4256" stop-opacity="1"></stop></linearGradient></defs><defs><linearGradient id="grad1_4" x1="43.8%" y1="0%" x2="100%" y2="100%"><stop offset="14.444444444444446%" stop-color="#34394c" stop-opacity="1"></stop><stop offset="85.55555555555554%" stop-color="#3b4256" stop-opacity="1"></stop></linearGradient></defs><defs><linearGradient id="grad1_5" x1="43.8%" y1="0%" x2="100%" y2="100%"><stop offset="14.444444444444446%" stop-color="#34394c" stop-opacity="1"></stop><stop offset="85.55555555555554%" stop-color="#2d3142" stop-opacity="1"></stop></linearGradient></defs><defs><linearGradient id="grad2_0" x1="0%" y1="0%" x2="56.3%" y2="100%"><stop offset="14.444444444444446%" stop-color="#4f5d75" stop-opacity="1"></stop><stop offset="85.55555555555554%" stop-color="#4f5d75" stop-opacity="1"></stop></linearGradient></defs><defs><linearGradient id="grad2_1" x1="0%" y1="0%" x2="56.3%" y2="100%"><stop offset="14.444444444444446%" stop-color="#48546a" stop-opacity="1"></stop><stop offset="85.55555555555554%" stop-color="#4f5d75" stop-opacity="1"></stop></linearGradient></defs><defs><linearGradient id="grad2_2" x1="0%" y1="0%" x2="56.3%" y2="100%"><stop offset="14.444444444444446%" stop-color="#48546a" stop-opacity="1"></stop><stop offset="85.55555555555554%" stop-color="#414b60" stop-opacity="1"></stop></linearGradient></defs><defs><linearGradient id="grad2_3" x1="0%" y1="0%" x2="56.3%" y2="100%"><stop offset="14.444444444444446%" stop-color="#3b4256" stop-opacity="1"></stop><stop offset="85.55555555555554%" stop-color="#414b60" stop-opacity="1"></stop></linearGradient></defs><defs><linearGradient id="grad2_4" x1="0%" y1="0%" x2="56.3%" y2="100%"><stop offset="14.444444444444446%" stop-color="#3b4256" stop-opacity="1"></stop><stop offset="85.55555555555554%" stop-color="#34394c" stop-opacity="1"></stop></linearGradient></defs><defs><linearGradient id="grad2_5" x1="0%" y1="0%" x2="56.3%" y2="100%"><stop offset="14.444444444444446%" stop-color="#2d3142" stop-opacity="1"></stop><stop offset="85.55555555555554%" stop-color="#34394c" stop-opacity="1"></stop></linearGradient></defs><g transform="translate(1920, 0)"><path d="M0 972C-106.1 967.5 -212.3 963 -300.4 924.4C-388.5 885.8 -458.5 813.1 -548.4 754.8C-638.3 696.5 -748.1 652.6 -782.3 568.4C-816.5 484.1 -775.1 359.5 -794.1 258C-813.1 156.6 -892.6 78.3 -972 0L0 0Z" fill="#303547"></path><path d="M0 810C-88.4 806.3 -176.9 802.5 -250.3 770.4C-323.7 738.2 -382.1 677.6 -457 629C-531.9 580.4 -623.4 543.9 -651.9 473.7C-680.4 403.4 -645.9 299.6 -661.8 215C-677.6 130.5 -743.8 65.2 -810 0L0 0Z" fill="#373e51"></path><path d="M0 648C-70.8 645 -141.5 642 -200.2 616.3C-259 590.6 -305.7 542.1 -365.6 503.2C-425.5 464.3 -498.7 435.1 -521.5 378.9C-544.3 322.8 -516.7 239.7 -529.4 172C-542.1 104.4 -595 52.2 -648 0L0 0Z" fill="#3e465b"></path><path d="M0 486C-53.1 483.8 -106.1 481.5 -150.2 462.2C-194.2 442.9 -229.2 406.6 -274.2 377.4C-319.2 348.3 -374.1 326.3 -391.2 284.2C-408.3 242.1 -387.6 179.7 -397.1 129C-406.6 78.3 -446.3 39.1 -486 0L0 0Z" fill="#454f65"></path><path d="M0 324C-35.4 322.5 -70.8 321 -100.1 308.1C-129.5 295.3 -152.8 271 -182.8 251.6C-212.8 232.2 -249.4 217.5 -260.8 189.5C-272.2 161.4 -258.4 119.8 -264.7 86C-271 52.2 -297.5 26.1 -324 0L0 0Z" fill="#4c5870"></path><path d="M0 162C-17.7 161.3 -35.4 160.5 -50.1 154.1C-64.7 147.6 -76.4 135.5 -91.4 125.8C-106.4 116.1 -124.7 108.8 -130.4 94.7C-136.1 80.7 -129.2 59.9 -132.4 43C-135.5 26.1 -148.8 13 -162 0L0 0Z" fill="#4f5d75"></path></g><g transform="translate(0, 1080)"><path d="M0 -972C115 -982.3 230 -992.5 300.4 -924.4C370.8 -856.3 396.6 -709.8 460.8 -634.3C525 -558.7 627.6 -554.2 695.8 -505.5C763.9 -456.8 797.6 -363.9 837.9 -272.2C878.2 -180.6 925.1 -90.3 972 0L0 0Z" fill="#303547"></path><path d="M0 -810C95.8 -818.6 191.6 -827.1 250.3 -770.4C309 -713.6 330.5 -591.5 384 -528.6C437.5 -465.6 523 -461.8 579.8 -421.2C636.6 -380.6 664.7 -303.2 698.2 -226.9C731.8 -150.5 770.9 -75.3 810 0L0 0Z" fill="#373e51"></path><path d="M0 -648C76.7 -654.8 153.3 -661.7 200.2 -616.3C247.2 -570.9 264.4 -473.2 307.2 -422.8C350 -372.5 418.4 -369.5 463.8 -337C509.3 -304.5 531.7 -242.6 558.6 -181.5C585.5 -120.4 616.7 -60.2 648 0L0 0Z" fill="#3e465b"></path><path d="M0 -486C57.5 -491.1 115 -496.3 150.2 -462.2C185.4 -428.2 198.3 -354.9 230.4 -317.1C262.5 -279.4 313.8 -277.1 347.9 -252.7C381.9 -228.4 398.8 -181.9 418.9 -136.1C439.1 -90.3 462.5 -45.2 486 0L0 0Z" fill="#454f65"></path><path d="M0 -324C38.3 -327.4 76.7 -330.8 100.1 -308.1C123.6 -285.4 132.2 -236.6 153.6 -211.4C175 -186.2 209.2 -184.7 231.9 -168.5C254.6 -152.3 265.9 -121.3 279.3 -90.7C292.7 -60.2 308.4 -30.1 324 0L0 0Z" fill="#4c5870"></path><path d="M0 -162C19.2 -163.7 38.3 -165.4 50.1 -154.1C61.8 -142.7 66.1 -118.3 76.8 -105.7C87.5 -93.1 104.6 -92.4 116 -84.2C127.3 -76.1 132.9 -60.6 139.6 -45.4C146.4 -30.1 154.2 -15.1 162 0L0 0Z" fill="#4f5d75"></path></g></svg>